<?xml version="1.0" encoding="iso-8859-1"?>
<!-- Generator: Adobe Illustrator 19.0.0, SVG Export Plug-In . SVG Version: 6.00 Build 0)  -->
<svg version="1.1" id="Layer_1" xmlns="http://www.w3.org/2000/svg" xmlns:xlink="http://www.w3.org/1999/xlink" x="0px" y="0px"
	 viewBox="0 0 512 512" style="enable-background:new 0 0 512 512;" xml:space="preserve">
<path style="fill:#808181;" d="M343.792,512H84.539V0H427.46v428.331C427.461,474.54,390,512,343.792,512z"/>
<path style="fill:#666666;" d="M343.792,512H256V0h171.461v428.331C427.461,474.54,390,512,343.792,512z"/>
<rect x="138.118" y="53.582" style="fill:#F7F8F8;" width="235.754" height="189.318"/>
<rect x="256" y="53.582" style="fill:#EBECEC;" width="117.882" height="189.318"/>
<circle style="fill:#FBAC50;" cx="302.637" cy="408.209" r="25.734"/>
<circle style="fill:#88DEE0;" cx="348.149" cy="350.798" r="25.734"/>
<polygon style="fill:#FF648D;" points="213.134,357.183 184.584,357.183 184.584,328.633 151.192,328.633 151.192,357.183 
	122.642,357.183 122.642,390.575 151.192,390.575 151.192,419.125 184.584,419.125 184.584,390.575 213.134,390.575 "/>
<g>
</g>
<g>
</g>
<g>
</g>
<g>
</g>
<g>
</g>
<g>
</g>
<g>
</g>
<g>
</g>
<g>
</g>
<g>
</g>
<g>
</g>
<g>
</g>
<g>
</g>
<g>
</g>
<g>
</g>
</svg>
